<svg width="889" height="1023" viewBox="0 0 889 1023" fill="none" xmlns="http://www.w3.org/2000/svg">
<mask id="path-1-inside-1_3_176" fill="white">
<path fill-rule="evenodd" clip-rule="evenodd" d="M770.725 324.423L444.799 136.856L444.799 136.856V136.857L118.879 324.42L118.869 324.414L121.192 700.133L121.189 700.134L121.192 700.136L121.192 700.139L121.195 700.137L446.825 886.977L770.725 699.411V324.423Z"/>
</mask>
<path d="M444.799 136.856L445.797 135.123L445.371 134.878L444.881 134.858L444.799 136.856ZM770.725 324.423H772.725V323.266L771.722 322.689L770.725 324.423ZM444.799 136.856L444.881 134.858L442.799 134.773V136.856H444.799ZM444.799 136.857L445.797 138.59L446.799 138.013V136.857H444.799ZM118.879 324.42L117.882 326.154L118.879 326.727L119.877 326.153L118.879 324.42ZM118.869 324.414L119.866 322.68L116.847 320.944L116.869 324.426L118.869 324.414ZM121.192 700.133L122.201 701.86L123.199 701.276L123.192 700.121L121.192 700.133ZM121.189 700.134L120.18 698.408L117.216 700.141L120.185 701.864L121.189 700.134ZM121.192 700.136L123.192 700.123L123.185 698.98L122.196 698.406L121.192 700.136ZM121.192 700.139L119.192 700.151L119.213 703.59L122.191 701.871L121.192 700.139ZM121.195 700.137L122.19 698.403L121.192 697.83L120.195 698.405L121.195 700.137ZM446.825 886.977L445.83 888.712L446.83 889.285L447.828 888.708L446.825 886.977ZM770.725 699.411L771.727 701.141L772.725 700.564V699.411H770.725ZM443.802 138.59L769.727 326.156L771.722 322.689L445.797 135.123L443.802 138.59ZM444.717 138.855L444.718 138.855L444.881 134.858L444.881 134.858L444.717 138.855ZM446.799 136.857V136.856H442.799V136.857H446.799ZM119.877 326.153L445.797 138.59L443.801 135.123L117.881 322.686L119.877 326.153ZM117.871 326.148L117.882 326.154L119.876 322.686L119.866 322.68L117.871 326.148ZM123.192 700.121L120.869 324.402L116.869 324.426L119.192 700.145L123.192 700.121ZM122.199 701.861L122.201 701.86L120.182 698.406L120.18 698.408L122.199 701.861ZM122.196 698.406L122.193 698.405L120.185 701.864L120.188 701.865L122.196 698.406ZM123.192 700.127L123.192 700.123L119.192 700.148L119.192 700.151L123.192 700.127ZM120.195 698.405L120.192 698.407L122.191 701.871L122.194 701.87L120.195 698.405ZM447.821 885.242L122.19 698.403L120.199 701.872L445.83 888.712L447.821 885.242ZM769.722 697.68L445.823 885.246L447.828 888.708L771.727 701.141L769.722 697.68ZM768.725 324.423V699.411H772.725V324.423H768.725Z" fill="url(#paint0_linear_3_176)" mask="url(#path-1-inside-1_3_176)"/>
<mask id="path-3-inside-2_3_176" fill="white">
<path fill-rule="evenodd" clip-rule="evenodd" d="M888.803 256.497L444.8 0.978615L0.804548 256.493L0.790466 256.485L3.95517 768.321L3.95211 768.322L3.95519 768.324L3.95522 768.329L3.95912 768.326L447.56 1022.85L888.803 767.337V256.497Z"/>
</mask>
<path d="M444.8 0.978615L445.299 0.111892L444.8 -0.175156L444.301 0.111892L444.8 0.978615ZM888.803 256.497H889.803V255.919L889.301 255.63L888.803 256.497ZM0.804548 256.493L0.305813 257.36L0.804584 257.647L1.30334 257.36L0.804548 256.493ZM0.790466 256.485L1.2892 255.618L-0.220282 254.75L-0.209515 256.491L0.790466 256.485ZM3.95517 768.321L4.45595 769.186L4.95874 768.895L4.95515 768.314L3.95517 768.321ZM3.95211 768.322L3.45133 767.457L1.94988 768.325L3.45401 769.189L3.95211 768.322ZM3.95519 768.324L4.95517 768.318L4.95163 767.743L4.4533 767.457L3.95519 768.324ZM3.95522 768.329L2.95524 768.335L2.96588 770.058L4.45655 769.194L3.95522 768.329ZM3.95912 768.326L4.45679 767.459L3.95668 767.172L3.45779 767.461L3.95912 768.326ZM447.56 1022.85L447.063 1023.72L447.563 1024.01L448.061 1023.72L447.56 1022.85ZM888.803 767.337L889.304 768.202L889.803 767.913V767.337H888.803ZM444.301 1.84534L888.304 257.364L889.301 255.63L445.299 0.111892L444.301 1.84534ZM1.30334 257.36L445.299 1.84534L444.301 0.111892L0.305758 255.626L1.30334 257.36ZM0.291732 257.352L0.305813 257.36L1.30328 255.626L1.2892 255.618L0.291732 257.352ZM4.95515 768.314L1.79045 256.479L-0.209515 256.491L2.95519 768.327L4.95515 768.314ZM4.45289 769.188L4.45595 769.186L3.45439 767.455L3.45133 767.457L4.45289 769.188ZM4.4533 767.457L4.45022 767.455L3.45401 769.189L3.45709 769.191L4.4533 767.457ZM4.9552 768.322L4.95517 768.318L2.95521 768.33L2.95524 768.335L4.9552 768.322ZM3.45779 767.461L3.45389 767.463L4.45655 769.194L4.46045 769.192L3.45779 767.461ZM448.058 1021.99L4.45679 767.459L3.46144 769.194L447.063 1023.72L448.058 1021.99ZM888.302 766.471L447.059 1021.99L448.061 1023.72L889.304 768.202L888.302 766.471ZM887.803 256.497V767.337H889.803V256.497H887.803Z" fill="url(#paint1_linear_3_176)" mask="url(#path-3-inside-2_3_176)"/>
<path d="M163.584 227.796L157.386 218.803L146.57 220.383L155.563 214.064L153.983 203.248L160.181 212.241L171.118 210.661L162.004 216.98L163.584 227.796Z" fill="#26B1FE"/>
<path d="M444.798 511.977L173.069 669.965L171.119 354.473L444.798 511.977Z" fill="url(#paint2_linear_3_176)"/>
<path d="M444.799 511.978L718.475 669.353V354.48L444.799 511.978Z" fill="url(#paint3_linear_3_176)"/>
<path d="M718.475 669.353L446.5 826.851L444.799 511.977L718.475 669.353Z" fill="url(#paint4_linear_3_176)"/>
<path d="M446.5 826.851L173.067 669.961L444.799 511.977L446.5 826.851Z" fill="url(#paint5_linear_3_176)"/>
<path d="M444.799 511.978V196.983L718.475 354.48L444.799 511.978Z" fill="url(#paint6_linear_3_176)"/>
<path d="M444.799 511.978L171.123 354.48L444.799 196.983V511.978Z" fill="url(#paint7_linear_3_176)"/>
<path d="M247.927 627.305V398.715L447.472 284.117L647.018 395.556V627.305L447.472 741.783L247.927 627.305Z" fill="url(#paint8_linear_3_176)"/>
<path d="M479.19 376.841L467.038 359.098L445.649 362.258L463.392 349.984L460.354 328.717L472.506 346.338L493.895 343.3L476.152 355.574L479.19 376.841Z" fill="white"/>
<path d="M280.375 669.475L274.177 660.36L263.361 661.94L272.354 655.742L270.774 644.805L276.972 653.92L287.909 652.34L278.795 658.538L280.375 669.475Z" fill="white"/>
<path d="M685.663 527.29L679.465 518.175L668.528 519.755L677.521 513.557L676.062 502.62L682.26 511.734L693.076 510.155L684.083 516.352L685.663 527.29Z" fill="white"/>
<path d="M703.535 826.851L697.216 817.736L686.4 819.316L695.393 813.118L693.813 802.302L700.133 811.295L710.948 809.715L701.955 815.913L703.535 826.851Z" fill="#26B1FE"/>
<path d="M60.1536 681.627L53.9558 672.635L43.14 674.214L52.1329 668.017L50.5531 657.079L56.7509 666.194L67.6882 664.614L58.5738 670.812L60.1536 681.627Z" fill="#26B1FE"/>
<defs>
<linearGradient id="paint0_linear_3_176" x1="444.797" y1="136.856" x2="444.797" y2="886.977" gradientUnits="userSpaceOnUse">
<stop stop-color="#16ABFD"/>
<stop offset="1" stop-color="#16ABFD" stop-opacity="0"/>
</linearGradient>
<linearGradient id="paint1_linear_3_176" x1="444.797" y1="0.978615" x2="444.797" y2="1022.85" gradientUnits="userSpaceOnUse">
<stop stop-color="#16ABFD"/>
<stop offset="1" stop-color="#16ABFD" stop-opacity="0"/>
</linearGradient>
<linearGradient id="paint2_linear_3_176" x1="308.994" y1="355.574" x2="308.659" y2="654.939" gradientUnits="userSpaceOnUse">
<stop stop-color="white"/>
<stop offset="1" stop-color="#16ABFD"/>
</linearGradient>
<linearGradient id="paint3_linear_3_176" x1="581.637" y1="354.48" x2="581.301" y2="654.889" gradientUnits="userSpaceOnUse">
<stop stop-color="white"/>
<stop offset="1" stop-color="#16ABFD"/>
</linearGradient>
<linearGradient id="paint4_linear_3_176" x1="581.637" y1="511.977" x2="581.301" y2="812.386" gradientUnits="userSpaceOnUse">
<stop stop-color="white"/>
<stop offset="1" stop-color="#16ABFD"/>
</linearGradient>
<linearGradient id="paint5_linear_3_176" x1="309.784" y1="511.977" x2="309.448" y2="812.386" gradientUnits="userSpaceOnUse">
<stop stop-color="white"/>
<stop offset="1" stop-color="#16ABFD"/>
</linearGradient>
<linearGradient id="paint6_linear_3_176" x1="581.637" y1="196.983" x2="581.301" y2="497.507" gradientUnits="userSpaceOnUse">
<stop stop-color="white"/>
<stop offset="1" stop-color="#16ABFD"/>
</linearGradient>
<linearGradient id="paint7_linear_3_176" x1="307.961" y1="196.983" x2="307.625" y2="497.507" gradientUnits="userSpaceOnUse">
<stop stop-color="white"/>
<stop offset="1" stop-color="#16ABFD"/>
</linearGradient>
<linearGradient id="paint8_linear_3_176" x1="447.472" y1="284.117" x2="446.986" y2="720.759" gradientUnits="userSpaceOnUse">
<stop stop-color="white"/>
<stop offset="1" stop-color="#16ABFD"/>
</linearGradient>
</defs>
</svg>
